# xmcd
#
# Track frame offsets:
#	150
#	14547
#	30277
#	44560
#	64017
#	80650
#	97062
#	110892
#	128870
#	145410
#	161337
#	178237
#
# Disc length: 2596 seconds
#
# Revision: 1
# Processed by: cddbd v1.4PL0 Copyright (c) Steve Scherf et al.
# Submitted via: audiograbber 1.81.03
#
DISCID=aa0a220c
DTITLE=Nashville Guitars - Pickin' The Hits
DYEAR=1995
DGENRE=Country
TTITLE0=Chattahoochee
TTITLE1=Friends In Low Places
TTITLE2=Slow Hand
TTITLE3=I Swear
TTITLE4=He Thinks He'll Keep Her
TTITLE5=Slow Dancing
TTITLE6=Boot Scootin' Boogie
TTITLE7=Rope The Moon
TTITLE8=Lookin' For Love
TTITLE9=American Honky Tonk Bar Association
TTITLE10=Rumor Has It
TTITLE11=After The Lovin'
EXTD=
EXTT0=
EXTT1=
EXTT2=
EXTT3=
EXTT4=
EXTT5=
EXTT6=
EXTT7=
EXTT8=
EXTT9=
EXTT10=
EXTT11=
PLAYORDER=
